<svg xmlns="http://www.w3.org/2000/svg" xmlns:xlink="http://www.w3.org/1999/xlink" width="78" height="78" viewBox="0 0 78 78"><defs><style>.a{fill:#5a781e;}.b{fill:none;}.c{fill:#fff;}.d{filter:url(#a);}</style><filter id="a" x="0" y="0" width="78" height="78" filterUnits="userSpaceOnUse"><feOffset dy="3" input="SourceAlpha"/><feGaussianBlur stdDeviation="3" result="b"/><feFlood flood-opacity="0.161"/><feComposite operator="in" in2="b"/><feComposite in="SourceGraphic"/></filter></defs><g transform="translate(9 6)"><g class="d" transform="matrix(1, 0, 0, 1, -9, -6)"><circle class="a" cx="30" cy="30" r="30" transform="translate(9 6)"/></g><g transform="translate(18 18)"><path class="b" d="M0,0H24V24H0Z"/><path class="c" d="M18.92,6.01A1.494,1.494,0,0,0,17.5,5H6.5A1.5,1.5,0,0,0,5.08,6.01L3,12v8a1,1,0,0,0,1,1H5a1,1,0,0,0,1-1V19H18v1a1,1,0,0,0,1,1h1a1,1,0,0,0,1-1V12ZM6.5,16A1.5,1.5,0,1,1,8,14.5,1.5,1.5,0,0,1,6.5,16Zm11,0A1.5,1.5,0,1,1,19,14.5,1.5,1.5,0,0,1,17.5,16ZM5,11,6.5,6.5h11L19,11Z"/></g></g></svg>