<svg xmlns="http://www.w3.org/2000/svg" width="255" height="155.868" viewBox="0 0 255 155.868"><defs><style>.a{fill:#ae2f2a;opacity:0.44;}.b{fill:#fff;}</style></defs><g transform="translate(-93 -69.134)"><path class="a" d="M119.916,128.122c-14.591,9.727-29.876,11.117-49.678,1.042,12.854-7.99,23.623-14.243,33.7-20.5-3.127-20.844-6.6-43.078-9.727-65.311,1.39-.347,2.779-1.042,4.169-1.39,16.328,12.159,28.834,27.1,34.74,47.247,3.127,15.633-1.042,30.224-13.2,38.909m-56.974-7.643C34.8,98.593,34.455,45.44,62.594,28.418c2.084,31.266,4.864,60.8.347,92.061M163.688,61.421c0-2.779-1.39-6.253-3.127-7.643C141.107,41.619,125.474,26.333,114.01,4.447,107.757,10.353,102.2,15.564,95.25,21.47V2.71c-3.127,0-4.864-.347-6.6,0C51.825,9.311,25.075,31.544,3.884,61.421a11.666,11.666,0,0,0-1.39,8.338c6.6,19.454,11.464,39.951,20.844,58.016C35.5,151.4,68.153,163.209,93.861,156.609c38.214-9.38,71.217-54.889,69.828-95.188" transform="translate(137.778 66.578)"/><path class="b" d="M32.048,34.428c-3.717,2.478-7.547,2.816-12.616.225,3.267-2.028,5.97-3.6,8.561-5.182-.788-5.294-1.69-10.926-2.478-16.558l1.014-.338a22.312,22.312,0,0,1,8.786,11.94c.9,4.055-.113,7.772-3.267,9.913M17.63,32.513c-7.1-5.519-7.209-19.037-.113-23.317.563,7.885,1.239,15.432.113,23.317M43.2,17.532a2.718,2.718,0,0,0-.788-1.915,31.676,31.676,0,0,1-11.827-12.5c-1.577,1.464-3.041,2.816-4.731,4.28V2.663a8.28,8.28,0,0,0-1.69,0C14.813,4.353,8.055,9.985,2.648,17.532a2.834,2.834,0,0,0-.338,2.14C4,24.628,5.239,29.81,7.6,34.428c3.041,5.97,11.377,9.011,17.91,7.322C35.2,39.272,43.537,27.782,43.2,17.532M59.758,29.923a6.765,6.765,0,0,1-2.478,3.6c-.563.338-2.591-.451-3.267-1.352-1.352-1.8-2.816-3.83-3.267-5.97-.338-1.352.788-3.154,1.69-4.393.225-.338,2.253.451,3.379.9a41.078,41.078,0,0,1,4.055,2.365c0,1.464.338,3.267-.113,4.844M79.02,33.415c1.014-7.66-1.577-13.968-7.322-19.149-1.577,1.126-3.041,2.14-4.506,3.154V2.551c-2.816,1.464-5.519,3.041-7.885,4.28.338,3.6.563,6.646.9,10.25-2.253-1.352-3.717-2.14-5.519-3.154-4.844,4.28-10.25,8.223-9.913,15.657.225,5.857,3.942,9.462,9.237,12.841l3.717-5.407c2.816,2.028,4.956,3.6,7.322,5.407,2.028-2.253,3.942-4.393,5.632-6.2-1.464-1.577-3.492-2.591-3.6-4.055-.451-3.267-.113-6.646-.113-10.7a18.215,18.215,0,0,1,5.745,9.237c1.8,7.322-.338,13.855-5.632,20.163,2.365-.563,3.942,2.14,5.519-.563,3.041-5.294,5.632-10.7,6.421-16.9m15.207,1.464c-2.253-.225-4.393-1.126-7.209-1.8,2.478-2.253,4.393-4.055,6.646-6.083.9,1.577,1.915,2.929,2.7,4.506,1.014,2.365.225,3.717-2.14,3.379m.9-13.4c-1.8,1.915-3.041,3.379-4.844,5.294-1.126-2.14-1.915-3.83-3.154-6.308,2.929.338,5.069.676,8,1.014m7.209-4.168v-.338c-2.591-.563-5.182-1.014-7.772-1.8-2.929-1.014-5.069-.338-6.871,2.028-.451.563-1.126,1.014-1.577,1.577-5.407,6.533-5.97,5.182-1.577,13.179.113.113,0,.338,0,.563-1.239,1.352-2.591,2.816-4.055,4.28,4.393,1.69,8.561,3.267,12.616,4.844,2.028-2.14,3.83-4.731,6.2-6.421,2.816-2.028,2.929-4.055,1.352-6.759-2.478-4.055-3.041-8,1.69-11.152m10.476,12.616a2.651,2.651,0,0,0-.9-.225V21.925c.338-.225.789-.338,1.126-.563,1.014,1.126,3.154,2.591,2.929,3.379-.451,1.915-2.028,3.492-3.154,5.182m.451,2.929c3.6-3.83,6.871-7.322,10.363-11.039-8.786-8.11-9.8-8.223-17.8-3.267-.338.225-.788.338-.9.563a3.171,3.171,0,0,0-.676,1.69v16c3.942,1.577,7.772,3.154,11.6,4.618a1.768,1.768,0,0,0,1.69-.338c1.69-2.14,3.267-4.393,4.956-6.759-3.267-.676-6.421.9-9.237-1.464m29.062,9.124c1.69-2.14,3.379-4.168,5.294-6.533-2.7-1.126-2.7-3.267-2.478-5.519.225-2.7.563-5.407.676-8.11,0-.676,0-1.577-.451-1.915-2.478-1.915-5.069-3.717-7.66-5.632-1.239,1.352-2.14,2.478-3.267,3.6-1.8-1.239-3.6-2.253-5.519-3.6-1.352,1.69-2.7,3.379-3.379,4.28,1.915,6.871,1.352,12.954,0,19.374,1.577,1.239,3.379,2.7,5.294,4.28,1.8-2.253,3.492-4.393,5.182-6.421-2.7-2.7-3.154-11.6-.789-14.531a4.637,4.637,0,0,1,2.7,5.294,70.485,70.485,0,0,0-.113,8.448c0,3.041,1.464,5.294,4.506,6.984M179.271,31.95a3.967,3.967,0,0,1-2.478,2.365c-1.915.113-3.717-.676-3.83-3.154-.113-3.154,0-6.308,0-9.913,3.942,2.14,6.984,7.209,6.308,10.7M162.037,15.166c-.338,1.126-1.577,1.915-2.366,2.816-.225-.113-.563-.225-.788-.338,0-1.239-.113-2.591,0-3.83a12.7,12.7,0,0,1,.9-2.7c.563.225,1.352.338,1.577.788.451,1.014,1.014,2.365.676,3.267m22.3,16.22a6.776,6.776,0,0,0,1.014-4.168c-.788-4.956-3.6-8.786-7.434-11.94a2.553,2.553,0,0,0-3.717,0c-2.478,2.028-5.182,3.83-8.223,6.083.451-1.464.676-2.365.9-3.379-1.464-.113-2.7-.225-4.28-.451,2.14-2.478,3.83-4.618,5.745-6.871-1.8-2.253-3.492-4.393-5.294-6.533-1.239,1.126-2.365,2.14-3.83,3.379.113-2.028.225-3.492.338-5.407C156.4,3.79,153.589,5.254,151,6.718c1.69,5.857,1.464,9.687-1.014,16.671,3.83.9,1.915,4.055,1.915,6.083-.113,2.365-1.239,4.618-2.14,7.209,1.69,1.352,3.717,2.929,5.97,4.506a2.408,2.408,0,0,0,2.14.113c1.8-1.69,3.379-3.6,5.294-5.745C156.4,33.189,159.671,28.12,159,24.291c2.591-.563,4.731-1.014,7.434-1.577-.338,4.393-.789,9.124-1.239,14.306,2.7,1.352,5.97,3.041,9.349,4.618a2.486,2.486,0,0,0,2.253-.676,108.744,108.744,0,0,0,7.547-9.575M209.8,41.637c1.8-1.8,3.492-3.717,5.294-5.745-4.168-2.929-4.168-2.929-4.168-7.66V3c-4.956,1.915-4.956,1.915-11.827.788-2.591-.451-4.393,0-5.97,2.253a79.35,79.35,0,0,1-5.407,6.533c.676,1.8,1.577,3.267,1.69,4.731.225,10.814.563,21.627-1.915,32.216-.451,2.028,0,2.929,2.365,3.267,1.8-5.182,4.055-10.138,5.407-15.432,1.239-5.182,1.577-10.588,2.365-16,.9-.113,2.028-.225,3.041-.338V14.378a8.934,8.934,0,0,1-1.915-.225c-.9-.338-1.915-.563-2.365-1.239a2.321,2.321,0,0,1,.338-2.253c.676-.451,1.8-.225,2.7-.338h4.393a14.7,14.7,0,0,1,.225,2.591c0,4.731-.113,9.575-.113,14.306,0,3.267.113,6.533-2.929,9.011,2.478,1.915,4.506,3.6,6.759,5.069.676.563,1.8.676,2.028.338m15.094-11.6c-.338-.113-.676-.225-1.126-.338V21.925c.338-.225.676-.338,1.014-.563,1.126,1.126,3.267,2.365,3.154,3.154-.338,2.028-1.915,3.717-3.041,5.519m.676,2.591L235.7,21.812c-8.673-8-9.8-8.223-17.8-3.267-.338.225-.788.338-.9.563a3.171,3.171,0,0,0-.676,1.69v16c3.942,1.577,7.772,3.154,11.6,4.618a1.751,1.751,0,0,0,1.69-.225c1.69-2.14,3.267-4.393,4.956-6.871-3.267-.225-6.083-.451-8.9-.563a4.225,4.225,0,0,0-.113-1.126m31.652-10.588a34.956,34.956,0,0,0-3.041-3.83c-3.83-3.942-3.83-3.942-8-.338-1.8-1.239-3.492-2.365-5.407-3.6-1.464,1.8-2.7,3.379-3.6,4.506,2.253,5.97,1.69,11.49.451,17.234,2.478,1.915,5.069,3.942,7.885,6.2,1.577-2.253,2.929-4.168,4.28-5.97-1.464-1.577-3.6-2.816-3.942-4.393-.451-3.267,0-6.759.113-10.25.338-.113.789-.338,1.126-.451,1.915,2.14,3.83,4.28,5.857,6.533,1.464-1.915,2.816-3.717,4.28-5.632" transform="translate(90.78 124.901)"/></g></svg>